<?xml version="1.0" standalone="no"?>
<!DOCTYPE svg PUBLIC "-//W3C//DTD SVG 20010904//EN"
 "http://www.w3.org/TR/2001/REC-SVG-20010904/DTD/svg10.dtd">
<svg version="1.0" xmlns="http://www.w3.org/2000/svg"
 width="1024.000000pt" height="1024.000000pt" viewBox="0 0 1024.000000 1024.000000"
 preserveAspectRatio="xMidYMid meet">

<g transform="translate(0.000000,1024.000000) scale(0.100000,-0.100000)"
fill="#000000" stroke="none">
<path d="M180 8375 l0 -435 1310 0 1310 0 0 -3230 0 -3230 485 0 485 0 0 3230
0 3230 880 0 880 0 0 -3165 0 -3165 408 0 407 0 18 83 c10 45 23 99 28 119 l9
37 83 -44 c45 -24 143 -70 217 -103 401 -177 727 -241 1163 -229 355 10 593
67 878 213 420 215 763 570 990 1023 158 317 250 626 305 1021 21 156 30 667
15 870 -48 645 -192 1122 -456 1515 -392 582 -969 840 -1730 774 -392 -33
-735 -164 -1146 -434 -69 -46 -169 -117 -222 -159 l-97 -76 0 1273 c0 699 -3
1282 -6 1295 l-6 22 -3104 0 -3104 0 0 -435z m7940 -2317 c395 -50 689 -280
856 -669 77 -182 131 -406 170 -714 26 -197 26 -718 1 -925 -61 -500 -201
-844 -445 -1093 -194 -198 -410 -313 -714 -379 -93 -20 -131 -22 -378 -23
-220 0 -297 4 -385 18 -219 36 -400 91 -665 199 l-155 64 -2 1479 -3 1480 92
65 c357 253 727 422 1065 486 170 32 371 37 563 12z"/>
</g>
</svg>
